PathFileType	4	(X/Y/Z)	s03c0401.trc
DataRate	CameraRate	NumFrames	NumMarkers	Units	OrigDataRate	OrigDataStartFrame	OrigNumFrames
200	200	4	52	mm	200	1500	2000
Frame#	Time	racr			lacr			c7			jug			rlel			rdr			llel			ldr			s2			lic			ric			lasi			rasi			rpsi			lpsi			rgt			lgt			rth1			rth2			rth3			rth4			rlfc			rmfc			rsh1			rsh2			rsh3			rsh4			rlmal			rmmal			rcal			rtoe			rmt5			rmt1			lth1			lth2			lth4			lth3			llfc			lmfc			lsh1			lsh2			lsh3			lsh4			llmal			lmmal			lcal			ltoe			lmt1			lmt5			SBIKE			LBIKE			RBIKE			
		X1	Y1	Z1	X2	Y2	Z2	X3	Y3	Z3	X4	Y4	Z4	X5	Y5	Z5	X6	Y6	Z6	X7	Y7	Z7	X8	Y8	Z8	X9	Y9	Z9	X10	Y10	Z10	X11	Y11	Z11	X12	Y12	Z12	X13	Y13	Z13	X14	Y14	Z14	X15	Y15	Z15	X16	Y16	Z16	X17	Y17	Z17	X18	Y18	Z18	X19	Y19	Z19	X20	Y20	Z20	X21	Y21	Z21	X22	Y22	Z22	X23	Y23	Z23	X24	Y24	Z24	X25	Y25	Z25	X26	Y26	Z26	X27	Y27	Z27	X28	Y28	Z28	X29	Y29	Z29	X30	Y30	Z30	X31	Y31	Z31	X32	Y32	Z32	X33	Y33	Z33	X34	Y34	Z34	X35	Y35	Z35	X36	Y36	Z36	X37	Y37	Z37	X38	Y38	Z38	X39	Y39	Z39	X40	Y40	Z40	X41	Y41	Z41	X42	Y42	Z42	X43	Y43	Z43	X44	Y44	Z44	X45	Y45	Z45	X46	Y46	Z46	X47	Y47	Z47	X48	Y48	Z48	X49	Y49	Z49	X50	Y50	Z50	X51	Y51	Z51	X52	Y52	Z52	
1500	7.5000	800.379515	1380.723044	-69.419548	739.863356	1386.378880	-383.425776	726.842548	1476.412324	-212.329830	703.242955	1301.076432	-221.069865	639.709795	1194.911669	109.532103	743.686051	977.886637	-14.786821	623.143665	1216.614851	-581.670367	726.101437	979.630273	-471.012858	162.796754	1284.489721	-140.239803	317.231529	1314.866303	-335.239641	355.489316	1270.015430	21.921730	336.597189	1242.604843	-302.820687	367.854264	1201.246094	-32.002919	204.264208	1324.282722	-88.901594	196.240401	1336.986658	-169.444882	265.537398	1154.513792	25.409971	271.346526	1235.440758	-363.201901	286.476718	999.161570	29.627197	325.825411	919.458018	22.504500	322.811344	835.249589	5.137258	360.896080	928.488934	14.599276	333.717121	714.464334	-39.824427	337.925615	702.924356	-155.263452	275.198361	558.931796	-15.243315	269.517956	470.812140	-31.687321	220.465213	397.487320	-36.021856	298.480635	464.579515	-56.806173	169.238550	280.107935	-60.474277	190.580851	288.211775	-140.251178	98.723751	278.027052	-88.739202	359.180280	108.820413	-125.475049	255.836541	153.627707	-43.007215	278.478596	164.989303	-157.424388	372.554032	1134.819907	-407.976456	448.541733	1096.101474	-424.150157	476.244354	1120.282625	-405.084412	495.421299	1021.764126	-439.133868	596.816495	933.172960	-443.205911	610.705717	904.381171	-315.059003	461.633833	825.905110	-458.556865	413.430073	758.221938	-437.073236	331.186521	720.601979	-428.297369	435.488818	735.011248	-415.836835	231.002012	648.474226	-406.780665	270.595446	640.493774	-319.623514	152.888818	648.405412	-356.610022	388.041333	448.269101	-361.478651	314.407412	504.229497	-316.744732	281.381354	506.443272	-431.227214	-216.708258	944.849753	-233.252368	-11.844427	80.911935	-435.503443	-11.964615	80.861221	-35.283829	
1501	7.5050	801.047801	1379.735706	-71.627217	739.538969	1385.877538	-384.999338	727.110546	1475.780684	-214.125381	703.311452	1300.518300	-223.127413	640.630001	1194.957602	108.410379	743.833361	977.778280	-15.344329	623.469893	1215.899166	-583.242222	725.972886	979.706587	-470.653989	162.861475	1286.175822	-140.065269	316.536908	1316.577757	-335.119971	356.170593	1270.378575	21.522201	335.769496	1244.512678	-303.433767	368.214251	1201.914768	-32.801671	204.490254	1325.615413	-88.696083	196.203703	1338.869954	-169.279889	265.814388	1155.330748	25.153171	270.840455	1237.347063	-363.575388	285.932344	1000.096646	29.356355	324.531771	920.156904	22.475850	321.285484	836.006105	5.176620	360.032840	929.087457	14.451739	331.392898	715.078461	-40.057454	336.349360	703.585613	-155.727060	271.210717	560.541650	-15.252734	264.276150	472.544837	-31.724521	214.444901	399.798271	-35.788970	293.205413	465.940953	-56.824491	161.821367	283.053988	-59.967864	183.570078	290.724233	-139.629043	90.881218	282.033738	-88.283283	348.425814	108.062964	-125.426813	246.018768	154.770624	-42.903236	268.785320	165.629788	-157.327494	372.314259	1136.066461	-407.069143	449.882551	1097.678074	-420.944817	475.446122	1121.359735	-405.089644	496.490633	1024.277149	-437.648268	599.255848	937.322327	-440.810445	613.490138	908.470204	-312.725770	466.029284	827.627648	-457.189758	418.690163	759.300017	-435.936509	336.874176	720.444728	-427.737540	440.877913	736.427163	-414.641271	237.480122	646.203780	-406.797227	277.091215	639.363445	-319.460400	159.114361	644.577006	-356.888421	398.887284	450.103872	-361.806683	323.954843	504.045618	-316.833086	291.101130	505.699096	-431.443343	-216.779898	944.835854	-233.357763	-11.856018	80.935949	-435.540151	-11.963187	80.877356	-35.298404	
1502	7.5100	801.661795	1378.681568	-73.722660	739.090724	1385.471980	-386.528727	727.416266	1475.200405	-215.825720	703.197701	1300.042509	-225.093360	641.536304	1194.986325	107.736126	744.031286	977.706691	-15.964835	623.845063	1215.170969	-584.805789	725.784366	980.028597	-470.075886	162.977853	1288.080199	-139.557480	316.061458	1318.493945	-335.162726	356.757745	1271.014882	21.052208	334.967373	1246.469888	-303.906455	368.456530	1203.031676	-33.585000	204.711381	1327.301386	-88.572014	196.170765	1340.971044	-169.128652	266.045005	1156.572714	24.858091	270.400959	1239.391396	-364.135712	285.829984	1001.283028	28.840189	324.204104	921.258622	22.248465	320.674144	837.003756	4.957254	359.654044	929.914631	14.107376	330.582682	716.023671	-39.557858	335.834236	704.818691	-156.126595	267.991743	562.626662	-15.395010	260.092146	474.867656	-31.595601	208.862235	402.706964	-35.631363	288.848423	467.891866	-56.772617	154.564876	286.638381	-59.597717	176.541743	293.899825	-139.253029	83.991703	286.807219	-88.608700	337.957059	108.236568	-125.185946	236.335460	156.862061	-42.825855	259.088182	167.009796	-157.337358	372.133206	1137.469213	-406.549892	450.096579	1099.749861	-420.131834	475.413711	1123.618570	-404.188879	497.292658	1026.661538	-436.390738	601.350850	941.008982	-438.341056	615.302496	911.738888	-310.264893	470.073613	828.572740	-454.594176	423.536008	759.842221	-434.723347	342.299366	719.964545	-427.193451	446.002858	737.344515	-413.317078	243.925747	643.234837	-406.574964	283.464645	637.191678	-318.874256	165.032808	639.887470	-357.040498	409.569224	451.430241	-362.210598	333.264946	503.649392	-316.711042	300.498280	504.323862	-431.632457	-216.825795	944.846776	-233.432707	-11.873018	80.945836	-435.569204	-11.984297	80.912601	-35.335071	
1503	7.5150	802.172486	1377.608871	-75.851738	738.603883	1384.975608	-388.040753	727.754722	1474.562989	-217.510495	702.976984	1299.528024	-226.992701	642.454628	1195.044007	107.065803	744.228579	977.664864	-16.555241	624.256421	1214.457442	-586.283575	725.602267	980.303618	-469.587682	162.761347	1290.055277	-139.725760	315.666701	1320.588347	-335.505030	357.142361	1271.897515	20.497792	334.219352	1248.611963	-304.488237	368.596334	1204.130722	-34.390271	204.880164	1329.249816	-88.496829	196.088392	1343.158000	-169.003664	266.222492	1158.080285	24.527196	270.095156	1241.512713	-364.768076	286.129737	1002.624104	28.071510	324.453614	922.656643	21.786106	320.889005	838.449816	4.603185	359.851624	931.344471	13.598030	330.518490	717.139297	-39.910520	335.939148	706.703491	-156.635526	265.569248	564.977948	-15.581563	255.841691	477.263433	-32.200978	203.654043	406.203420	-35.578169	284.233228	469.765745	-57.417536	147.354085	291.151344	-59.573784	169.621664	297.770526	-139.053774	76.873517	292.242230	-88.710367	327.660281	109.430147	-124.729625	226.831579	159.967147	-42.639623	249.617063	169.135332	-157.082507	372.104664	1139.081629	-406.120667	450.369351	1101.745797	-419.341543	475.482117	1125.714994	-403.213126	497.978262	1028.763687	-434.952819	603.017096	944.329354	-435.856596	616.325547	914.689294	-307.743292	473.540308	829.395090	-452.793779	428.004308	759.813560	-433.361647	347.349036	718.747671	-426.557955	450.743285	737.628227	-412.063544	249.978284	639.514451	-406.399363	289.214395	634.388367	-318.414211	170.727690	634.396298	-357.117987	420.217526	451.851735	-361.529263	342.064858	502.353169	-316.456949	309.663979	502.415207	-431.942114	-216.886460	944.880470	-233.523431	-11.885748	80.940741	-435.590697	-11.999728	80.931519	-35.343759	
